<?xml version="1.0" encoding="UTF-8" standalone="no"?>
<svg xmlns="http://www.w3.org/2000/svg" xmlns:xlink="http://www.w3.org/1999/xlink" id="body_1" width="1356" height="243">
  <rect width="1356" height="243" fill="#1a237e"/>
  <defs>
    <clipPath id="1">
      <path clip-rule="evenodd" d="M0 0L595.22 0L595.22 842L0 842L0 0z"></path>
    </clipPath>
  </defs>
  <g transform="matrix(11.310656 0 0 11.310656 2.3882575 -0)">
    <g transform="matrix(1 0 0 1 -8.425852 -17.368683)">
      <g transform="matrix(0 0.35277778 0.35277778 0 -7.1284733 -5.300816)" clip-path="url(#1)">
        <g transform="matrix(1 0 0 1 87.96 119.091)">
          <path d="M0 0L-0.18 -0.48L-0.42000002 -0.96L-0.72 -1.26L-1.08 -1.56L-1.5600001 -1.74L-1.98 -1.86L-2.46 -1.92L-2.94 -1.86L-3.3600001 -1.74L-3.8400002 -1.56C -4.565 -1.099 -4.987 -0.25199997 -4.98 0.60000014L-4.98 0.60000014L-4.98 57.6L-4.92 58.199997L-4.7400002 58.679996C -3.9750004 60.839996 0.08899975 60.599995 0.059999943 57.599995L0.059999943 57.599995L0.059999943 0.6L0 0" stroke="none" fill="#FFFFFF" fill-rule="nonzero"></path>
        </g>
        <g transform="matrix(1 0 0 1 108.9 87.951)">
          <path d="M0 0L0.48 -0.18L0.96 -0.42L1.32 -0.72L1.56 -1.08L1.74 -1.56L1.86 -1.98L1.92 -2.46L1.86 -2.94L1.74 -3.36L1.56 -3.84L1.32 -4.2L0.96 -4.5L0.48 -4.74L0 -4.92L-0.6 -4.98L-23.4 -4.98L-24 -4.92L-24.48 -4.7400002C -26.72 -3.8320003 -26.296999 0.07199955 -23.4 0.059999943L-23.4 0.059999943L-0.6 0.059999943L0 0" stroke="none" fill="#FFFFFF" fill-rule="nonzero"></path>
        </g>
        <g transform="matrix(1 0 0 1 87.96 56.391)">
          <path d="M0 0L-0.18 -0.48L-0.42000002 -0.96L-0.72 -1.26L-1.08 -1.56L-1.5600001 -1.74L-1.98 -1.86L-2.46 -1.92L-2.94 -1.86L-3.3600001 -1.74L-3.8400002 -1.56C -4.565 -1.099 -4.987 -0.25199997 -4.98 0.60000014L-4.98 0.60000014L-4.98 57.6L-4.92 58.199997L-4.7400002 58.679996C -3.9750004 60.839996 0.08899975 60.599995 0.059999943 57.599995L0.059999943 57.599995L0.059999943 0.6L0 0" stroke="none" fill="#FFFFFF" fill-rule="nonzero"></path>
        </g>
        <g transform="matrix(1 0 0 1 99.36 119.091)">
          <path d="M0 0L-0.18 -0.48L-0.42000002 -0.96L-0.72 -1.26L-1.08 -1.56L-1.5600001 -1.74L-1.98 -1.86L-2.46 -1.92L-2.94 -1.86L-3.3600001 -1.74L-3.8400002 -1.56C -4.565 -1.099 -4.987 -0.25199997 -4.98 0.60000014L-4.98 0.60000014L-4.98 57.6L-4.92 58.199997L-4.7400002 58.679996C -3.9750004 60.839996 0.08899975 60.599995 0.059999943 57.599995L0.059999943 57.599995L0.059999943 0.6L0 0" stroke="none" fill="#FFFFFF" fill-rule="nonzero"></path>
        </g>
        <g transform="matrix(1 0 0 1 110.76 119.091)">
          <path d="M0 0L-0.18 -0.48L-0.42000002 -0.96L-0.72 -1.26L-1.08 -1.56L-1.5600001 -1.74L-1.98 -1.86L-2.46 -1.92L-2.94 -1.86L-3.3600001 -1.74L-3.8400002 -1.56C -4.565 -1.099 -4.987 -0.25199997 -4.98 0.60000014L-4.98 0.60000014L-4.98 57.6L-4.92 58.199997L-4.7400002 58.679996C -3.9750004 60.839996 0.08899975 60.599995 0.059999943 57.599995L0.059999943 57.599995L0.059999943 0.6L0 0" stroke="none" fill="#FFFFFF" fill-rule="nonzero"></path>
        </g>
        <g transform="matrix(1 0 0 1 108.9 179.151)">
          <path d="M0 0L0.48 -0.18L0.96 -0.42L1.32 -0.72L1.56 -1.08L1.74 -1.56L1.86 -1.98L1.92 -2.46L1.86 -2.94L1.74 -3.36L1.56 -3.84L1.32 -4.2L0.96 -4.5L0.48 -4.74L0 -4.92L-0.6 -4.98L-12 -4.98L-12.6 -4.92L-13.08 -4.7400002C -15.32 -3.8330002 -14.897 0.07199955 -12 0.059999943L-12 0.059999943L-0.6 0.059999943L0 0" stroke="none" fill="#FFFFFF" fill-rule="nonzero"></path>
        </g>
        <g transform="matrix(1 0 0 1 97.5 122.151)">
          <path d="M0 0L0.48 -0.18L0.96 -0.42L1.32 -0.72L1.56 -1.08L1.74 -1.56L1.86 -1.98L1.92 -2.46L1.86 -2.94L1.74 -3.36L1.56 -3.84L1.32 -4.2L0.96 -4.5L0.48 -4.74L0 -4.92L-0.6 -4.98L-12 -4.98L-12.6 -4.92L-13.08 -4.7400002C -15.32 -3.8330002 -14.897 0.07199955 -12 0.059999943L-12 0.059999943L-0.6 0.059999943L0 0" stroke="none" fill="#FFFFFF" fill-rule="nonzero"></path>
        </g>
        <g transform="matrix(1 0 0 1 87.06 208.911)">
          <path d="M0 0L-0.42 -0.3L-0.9 -0.48L-1.38 -0.6C -2.204 -0.528 -2.882 -0.28900003 -3.48 0.29999995L-3.48 0.29999995L-3.78 0.7199999L-3.96 1.1399999C -4.309 2.197 -4.1480002 2.631 -3.54 3.54L-3.54 3.54L19.259998 32.04L19.679998 32.46L20.099998 32.76C 22.421999 33.945 25.010998 31.008999 23.219997 28.919998L23.219997 28.919998L0.42 0.42L0 0" stroke="none" fill="#FFFFFF" fill-rule="nonzero"></path>
        </g>
        <g transform="matrix(1 0 0 1 110.58 183.471)">
          <path d="M0 0L0.24 -0.54L0.3 -1.02L0.24 -1.5C -0.003 -2.452 -0.246 -2.787 -1.08 -3.3L-1.08 -3.3L-1.56 -3.48L-1.98 -3.6C -2.836 -3.8119998 -3.731 -3.2859998 -4.26 -2.6399999L-4.26 -2.6399999L-27.06 25.86L-27.359999 26.34L-27.599998 26.880001C -28.092999 29.438002 -24.777998 31.146 -23.099998 28.980001L-23.099998 28.980001L-0.3 0.48L0 0" stroke="none" fill="#FFFFFF" fill-rule="nonzero"></path>
        </g>
        <g transform="matrix(1 0 0 1 87.06 271.611)">
          <path d="M0 0L-0.42 -0.3L-0.9 -0.48L-1.38 -0.6C -2.204 -0.528 -2.882 -0.28900003 -3.48 0.29999995L-3.48 0.29999995L-3.78 0.7199999L-3.96 1.1399999C -4.309 2.197 -4.1480002 2.631 -3.54 3.54L-3.54 3.54L19.259998 32.04L19.679998 32.46L20.099998 32.76C 22.421999 33.945 25.010998 31.008999 23.219997 28.919998L23.219997 28.919998L0.42 0.42L0 0" stroke="none" fill="#FFCC00" fill-rule="nonzero"></path>
        </g>
        <g transform="matrix(1 0 0 1 110.58 246.171)">
          <path d="M0 0L0.24 -0.54L0.3 -1.02L0.24 -1.5C -0.002 -2.452 -0.246 -2.787 -1.08 -3.3L-1.08 -3.3L-1.56 -3.48L-1.98 -3.6C -2.836 -3.8119998 -3.731 -3.2859998 -4.26 -2.6399999L-4.26 -2.6399999L-27.06 25.86L-27.359999 26.34L-27.599998 26.880001C -28.092999 29.438002 -24.777998 31.146 -23.099998 28.980001L-23.099998 28.980001L-0.3 0.48L0 0" stroke="none" fill="#FFCC00" fill-rule="nonzero"></path>
        </g>
        <g transform="matrix(1 0 0 1 108.9 338.751)">
          <path d="M0 0L0.48 -0.18L0.96 -0.42L1.32 -0.72L1.56 -1.08L1.74 -1.56L1.86 -1.98L1.92 -2.46L1.86 -2.94L1.74 -3.36L1.56 -3.84L1.32 -4.2L0.96 -4.5L0.48 -4.74L0 -4.92L-0.6 -4.98L-23.4 -4.98L-24 -4.92L-24.48 -4.7400002C -26.72 -3.8320003 -26.296999 0.07199955 -23.4 0.059999943L-23.4 0.059999943L-0.6 0.059999943L0 0" stroke="none" fill="#FFCC00" fill-rule="nonzero"></path>
        </g>
        <g transform="matrix(1 0 0 1 87.96 307.191)">
          <path d="M0 0L-0.18 -0.48L-0.42000002 -0.96L-0.72 -1.26L-1.08 -1.56L-1.5600001 -1.74L-1.98 -1.86L-2.46 -1.92L-2.94 -1.86L-3.3600001 -1.74L-3.8400002 -1.56C -4.565 -1.099 -4.987 -0.25199997 -4.98 0.60000014L-4.98 0.60000014L-4.98 57.6L-4.92 58.199997L-4.7400002 58.679996C -3.9750004 60.839996 0.08899975 60.599995 0.059999943 57.599995L0.059999943 57.599995L0.059999943 0.6L0 0" stroke="none" fill="#FFCC00" fill-rule="nonzero"></path>
        </g>
        <g transform="matrix(1 0 0 1 110.76 307.191)">
          <path d="M0 0L-0.18 -0.48L-0.42000002 -0.96L-0.72 -1.26L-1.08 -1.56L-1.5600001 -1.74L-1.98 -1.86L-2.46 -1.92L-2.94 -1.86L-3.3600001 -1.74L-3.8400002 -1.56C -4.565 -1.099 -4.987 -0.25199997 -4.98 0.60000014L-4.98 0.60000014L-4.98 57.6L-4.92 58.199997L-4.7400002 58.679996C -3.9750004 60.839996 0.08899975 60.599995 0.059999943 57.599995L0.059999943 57.599995L0.059999943 0.6L0 0" stroke="none" fill="#FFCC00" fill-rule="nonzero"></path>
        </g>
        <g transform="matrix(1 0 0 1 98.88 210.291)">
          <path d="M0 0L-0.18 0.54L-0.24 1.02L-0.24 1.5L-0.12 1.98L0.12 2.4L0.36 2.76L0.72 3.12L1.14 3.42L1.56 3.6L1.98 3.72C 2.951 3.786 3.681 3.518 4.32 2.76L4.32 2.76L5.4 1.44L5.76 0.96L5.94 0.42C 6.524 -2.083 3.286 -4.02 1.44 -1.8L1.44 -1.8L0.36 -0.48L0 0" stroke="none" fill="#FFFFFF" fill-rule="nonzero"></path>
        </g>
        <g transform="matrix(1 0 0 1 98.88 273.171)">
          <path d="M0 0L-0.18 0.54L-0.24 1.02L-0.24 1.5L-0.12 1.98L0.12 2.4L0.36 2.76L0.72 3.12L1.14 3.42L1.56 3.6L1.98 3.72C 2.951 3.786 3.681 3.518 4.32 2.76L4.32 2.76L5.4 1.44L5.76 0.96L5.94 0.42C 6.524 -2.083 3.286 -4.02 1.44 -1.8L1.44 -1.8L0.36 -0.48L0 0" stroke="none" fill="#FFCC00" fill-rule="nonzero"></path>
        </g>
      </g>
    </g>
  </g>
</svg>
